# xmcd
#
# Track frame offsets:
#	150
#	29667
#	45953
#	59024
#	74297
#	88140
#	103304
#	119273
#	144852
#	164373
#	187830
#	204293
#	222066
#	238787
#
# Disc length: 3487 seconds
#
# Revision: 0
# Processed by: cddbd v1.4PL0 Copyright (c) Steve Scherf et al.
# Submitted via: dBpowerAMP V4.0
#
DISCID=c60d9d0e
DTITLE=Dolly Parton - Halos And Horns
DYEAR=2002
DGENRE=Country
TTITLE0=Halos And Horns
TTITLE1=Sugar Hill
TTITLE2=Not For Me
TTITLE3=Hello God
TTITLE4=If
TTITLE5=Shattered Image
TTITLE6=These Old Bones
TTITLE7=What A Heartache
TTITLE8=I'm Gone
TTITLE9=Raven Dove
TTITLE10=Dagger Through The Heart
TTITLE11=If Only
TTITLE12=John Daniel
TTITLE13=Stairway To Heaven
EXTD=
EXTT0=
EXTT1=
EXTT2=
EXTT3=
EXTT4=
EXTT5=
EXTT6=
EXTT7=
EXTT8=
EXTT9=
EXTT10=
EXTT11=
EXTT12=
EXTT13=
PLAYORDER=
